<svg width="36" height="36" viewBox="0 0 36 36" fill="none" xmlns="http://www.w3.org/2000/svg">
<g id="behance">
<path id="Vector" d="M11.7045 8.59644C12.588 8.59644 13.383 8.67294 14.112 8.82894C14.8365 8.98344 15.4545 9.23844 15.9765 9.59094C16.491 9.94344 16.893 10.4114 17.1825 10.9994C17.463 11.5799 17.6025 12.3059 17.6025 13.1639C17.6025 14.0939 17.3925 14.8709 16.971 15.4904C16.5465 16.1114 15.921 16.6199 15.087 17.0129C16.2225 17.3414 17.064 17.9159 17.622 18.7319C18.183 19.5554 18.4575 20.5409 18.4575 21.6959C18.4575 22.6334 18.279 23.4389 17.9205 24.1154C17.575 24.7819 17.0738 25.3551 16.4595 25.7864C15.8232 26.2296 15.1124 26.5547 14.361 26.7464C13.5732 26.9532 12.762 27.0571 11.9475 27.0554H3V8.59644H11.7045ZM11.178 16.0544C11.898 16.0544 12.495 15.8834 12.966 15.5369C13.434 15.1949 13.6605 14.6309 13.6605 13.8584C13.6605 13.4294 13.584 13.0754 13.434 12.7979C13.2879 12.531 13.0716 12.309 12.8085 12.1559C12.5331 11.9926 12.2292 11.8832 11.913 11.8334C11.5683 11.7691 11.2181 11.7385 10.8675 11.7419H7.065V16.0544H11.178ZM11.4045 23.9129C11.805 23.9129 12.186 23.8784 12.5445 23.7974C12.906 23.7194 13.227 23.5934 13.5 23.4059C13.773 23.2259 13.998 22.9814 14.16 22.6694C14.3235 22.3604 14.403 21.9569 14.403 21.4724C14.403 20.5214 14.1345 19.8449 13.6035 19.4354C13.071 19.0304 12.357 18.8294 11.4825 18.8294H7.065V23.9144H11.4045V23.9129ZM24.252 23.8514C24.8025 24.3884 25.596 24.6584 26.628 24.6584C27.3675 24.6584 28.0065 24.4709 28.545 24.0989C29.076 23.7254 29.4 23.3264 29.5245 22.9139H32.757C32.238 24.5219 31.4505 25.6709 30.3735 26.3624C29.31 27.0569 28.0155 27.4019 26.5035 27.4019C25.4505 27.4019 24.5025 27.2324 23.6535 26.8964C22.8386 26.5791 22.1022 26.0888 21.495 25.4594C20.8978 24.8154 20.4362 24.0579 20.1375 23.2319C19.8092 22.3186 19.6466 21.3539 19.6575 20.3834C19.6575 19.3844 19.824 18.4499 20.151 17.5874C20.4614 16.7537 20.9381 15.9918 21.552 15.3479C22.1595 14.7179 22.8795 14.2214 23.718 13.8569C24.5997 13.4861 25.5485 13.3012 26.505 13.3139C27.636 13.3139 28.6245 13.5329 29.4735 13.9739C30.2968 14.3949 31.0107 15.002 31.5585 15.7469C32.103 16.4864 32.4915 17.3339 32.733 18.2834C32.9745 19.2314 33.0585 20.2214 32.9895 21.2579H23.343C23.3445 22.3139 23.7 23.3144 24.252 23.8514ZM28.47 16.8299C28.0335 16.3469 27.2955 16.0859 26.3925 16.0859C25.806 16.0859 25.3215 16.1834 24.9315 16.3844C24.5749 16.5645 24.2585 16.8151 24.0015 17.1209C23.7758 17.3986 23.6084 17.719 23.5095 18.0629C23.423 18.3497 23.3672 18.6449 23.343 18.9434H29.316C29.229 18.0074 28.908 17.3159 28.47 16.8299ZM22.593 9.83544H30.0765V11.6579H22.593V9.83544Z" fill="black"/>
</g>
</svg>
