<svg width="36" height="36" viewBox="0 0 36 36" fill="none" xmlns="http://www.w3.org/2000/svg">
<g id="nstagram">
<g id="Vector">
<path d="M17.9986 11.0656C16.159 11.0656 14.3948 11.7963 13.0941 13.0971C11.7933 14.3978 11.0626 16.162 11.0626 18.0016C11.0626 19.8411 11.7933 21.6053 13.0941 22.9061C14.3948 24.2068 16.159 24.9376 17.9986 24.9376C19.8381 24.9376 21.6023 24.2068 22.903 22.9061C24.2038 21.6053 24.9346 19.8411 24.9346 18.0016C24.9346 16.162 24.2038 14.3978 22.903 13.0971C21.6023 11.7963 19.8381 11.0656 17.9986 11.0656ZM17.9986 22.5061C16.8035 22.5061 15.6574 22.0313 14.8123 21.1863C13.9673 20.3413 13.4926 19.1951 13.4926 18.0001C13.4926 16.805 13.9673 15.6589 14.8123 14.8138C15.6574 13.9688 16.8035 13.4941 17.9986 13.4941C19.1936 13.4941 20.3397 13.9688 21.1848 14.8138C22.0298 15.6589 22.5046 16.805 22.5046 18.0001C22.5046 19.1951 22.0298 20.3413 21.1848 21.1863C20.3397 22.0313 19.1936 22.5061 17.9986 22.5061Z" fill="black"/>
<path d="M25.2091 12.4276C26.1021 12.4276 26.8261 11.7036 26.8261 10.8106C26.8261 9.91752 26.1021 9.19357 25.2091 9.19357C24.316 9.19357 23.5921 9.91752 23.5921 10.8106C23.5921 11.7036 24.316 12.4276 25.2091 12.4276Z" fill="black"/>
<path d="M30.7996 9.16657C30.4523 8.26984 29.9216 7.45549 29.2416 6.77566C28.5615 6.09582 27.7469 5.56548 26.8501 5.21857C25.8006 4.8246 24.6918 4.61158 23.5711 4.58857C22.1266 4.52557 21.6691 4.50757 18.0061 4.50757C14.3431 4.50757 13.8736 4.50757 12.4411 4.58857C11.3211 4.6104 10.2132 4.82347 9.16505 5.21857C8.26796 5.56507 7.4532 6.09527 6.77305 6.77516C6.09291 7.45505 5.56239 8.2696 5.21555 9.16657C4.82151 10.216 4.60897 11.3248 4.58705 12.4456C4.52255 13.8886 4.50305 14.3461 4.50305 18.0106C4.50305 21.6736 4.50305 22.1401 4.58705 23.5756C4.60955 24.6976 4.82105 25.8046 5.21555 26.8561C5.56337 27.7527 6.0944 28.5669 6.77471 29.2467C7.45502 29.9265 8.26965 30.4569 9.16655 30.8041C10.2127 31.2139 11.3211 31.4421 12.4441 31.4791C13.8886 31.5421 14.3461 31.5616 18.0091 31.5616C21.6721 31.5616 22.1416 31.5616 23.5741 31.4791C24.6947 31.4563 25.8034 31.2438 26.8531 30.8506C27.7497 30.5029 28.564 29.972 29.244 29.292C29.924 28.612 30.4548 27.7977 30.8026 26.9011C31.1971 25.8511 31.4086 24.7441 31.4311 23.6221C31.4956 22.1791 31.5151 21.7216 31.5151 18.0571C31.5151 14.3926 31.5151 13.9276 31.4311 12.4921C31.4136 11.3555 31.2 10.2304 30.7996 9.16657ZM28.9726 23.4646C28.9629 24.329 28.8051 25.1854 28.5061 25.9966C28.2808 26.5799 27.9359 27.1096 27.4937 27.5516C27.0514 27.9936 26.5215 28.3381 25.9381 28.5631C25.1359 28.8607 24.2886 29.0185 23.4331 29.0296C22.0081 29.0956 21.6061 29.1121 17.9521 29.1121C14.2951 29.1121 13.9216 29.1121 12.4696 29.0296C11.6144 29.0191 10.7675 28.8613 9.96605 28.5631C9.38058 28.3395 8.84855 27.9956 8.40439 27.5535C7.96022 27.1114 7.6138 26.581 7.38755 25.9966C7.09272 25.1941 6.93502 24.3478 6.92105 23.4931C6.85655 22.0681 6.84155 21.6661 6.84155 18.0121C6.84155 14.3566 6.84155 13.9831 6.92105 12.5296C6.93075 11.6656 7.08853 10.8097 7.38755 9.99907C7.84505 8.81557 8.78255 7.88407 9.96605 7.43107C10.7679 7.13428 11.6146 6.97651 12.4696 6.96457C13.8961 6.90007 14.2966 6.88207 17.9521 6.88207C21.6076 6.88207 21.9826 6.88207 23.4331 6.96457C24.2887 6.97486 25.1361 7.13268 25.9381 7.43107C26.5214 7.65648 27.0513 8.00137 27.4935 8.44361C27.9358 8.88586 28.2806 9.41568 28.5061 9.99907C28.8009 10.8015 28.9586 11.6478 28.9726 12.5026C29.0371 13.9291 29.0536 14.3296 29.0536 17.9851C29.0536 21.6391 29.0536 22.0321 28.9891 23.4661H28.9726V23.4646Z" fill="black"/>
</g>
</g>
</svg>
